<svg xmlns="http://www.w3.org/2000/svg" xmlns:xlink="http://www.w3.org/1999/xlink" viewBox="0,0,256,256" width="100px" height="100px"><g fill="#a6a6a6" fill-rule="nonzero" stroke="none" stroke-width="1" stroke-linecap="butt" stroke-linejoin="miter" stroke-miterlimit="10" stroke-dasharray="" stroke-dashoffset="0" font-family="none" font-weight="none" font-size="none" text-anchor="none" style="mix-blend-mode: normal"><g transform="scale(2,2)"><path d="M14,13c-7.2,0 -13,5.8 -13,13v78c0,7.2 5.8,13 13,13h100c7.2,0 13,-5.8 13,-13v-78c0,-7.2 -5.8,-13 -13,-13zM14,19h100c3.9,0 7,3.1 7,7v34.40039c0,1.8 -1.60039,3.2 -3.40039,3c-43.4,-6.6 -73.39961,9.4 -85.09961,45.5c-0.4,1.2 -1.50039,2.09961 -2.90039,2.09961h-15.59961c-3.9,0 -7,-3.1 -7,-7v-78c0,-3.9 3.1,-7 7,-7zM36,30.97461c-4.35,0 -8.7,1.67539 -12,5.02539c-6.6,6.6 -6.6,17.39961 0,24.09961c3.3,3.3 7.7,5 12,5c4.3,0 8.7,-1.7 12,-5c6.6,-6.6 6.6,-17.39961 0,-24.09961c-3.3,-3.35 -7.65,-5.02539 -12,-5.02539z"></path></g></g></svg>